STARTFONT 2.1
FONT -WRI-Mathematica1-Medium-R-Normal--26-260-75-75-p-150-Adobe-FontSpecific
SIZE 26 75 75
FONTBOUNDINGBOX 43 30 -3 -6
STARTPROPERTIES 16
FOUNDRY "WRI"
FAMILY_NAME "Mathematica1"
WEIGHT_NAME "Medium"
SLANT "R"
SETWIDTH_NAME "Normal"
PIXEL_SIZE 26
POINT_SIZE 260
RESOLUTION_X 75
RESOLUTION_Y 75
SPACING "p"
AVERAGE_WIDTH 150
CHARSET_REGISTRY "Adobe"
CHARSET_ENCODING "FontSpecific"
FONT_DESCENT 6
FONT_ASCENT 24
DEFAULT_CHAR 32
ENDPROPERTIES
CHARS 224
STARTCHAR Space
ENCODING 32
SWIDTH 189 0
DWIDTH 5 0
BBX 0 0 0 0
BITMAP
ENDCHAR
STARTCHAR Exclamation
ENCODING 33
SWIDTH 333 0
DWIDTH 9 0
BBX 3 18 3 0
BITMAP
60
e0
e0
e0
e0
e0
e0
60
40
40
40
40
40
00
00
e0
e0
e0
ENDCHAR
STARTCHAR ForAll
ENCODING 34
SWIDTH 587 0
DWIDTH 15 0
BBX 13 17 1 0
BITMAP
8038
8038
4030
4070
4070
2060
20e0
3fc0
11c0
11c0
0980
0b80
0b00
0700
0700
0200
0200
ENDCHAR
STARTCHAR NumberSign
ENCODING 35
SWIDTH 622 0
DWIDTH 16 0
BBX 13 17 1 0
BITMAP
0620
0420
0460
0c60
0c60
7ff8
7ff8
0840
18c0
fff8
fff8
1080
1180
3180
3180
2100
2100
ENDCHAR
STARTCHAR Exists
ENCODING 36
SWIDTH 587 0
DWIDTH 15 0
BBX 12 17 2 0
BITMAP
fff0
0030
0030
0030
0030
0030
0030
0030
3ff0
0030
0030
0030
0030
0030
0030
0030
fff0
ENDCHAR
STARTCHAR Percent
ENCODING 37
SWIDTH 800 0
DWIDTH 21 0
BBX 17 17 2 0
BITMAP
0c0c00
320800
611000
611000
c12000
c22000
c24000
c4c000
788f00
019880
013080
037080
026080
066100
046100
083200
083c00
ENDCHAR
STARTCHAR Ampersand
ENCODING 38
SWIDTH 778 0
DWIDTH 20 0
BBX 18 18 1 0
BITMAP
03c000
063000
0c1000
0c1000
0c1000
0e2000
0ec880
070700
0f0600
338400
63c400
41e800
c0e800
c07000
c03800
e07c40
719f80
3e0700
ENDCHAR
STARTCHAR SmallMember
ENCODING 39
SWIDTH 486 0
DWIDTH 13 0
BBX 9 12 2 0
BITMAP
fe00
0700
0300
0180
0180
7f80
7f80
0180
0300
0300
0e00
f800
ENDCHAR
STARTCHAR LParen
ENCODING 40
SWIDTH 321 0
DWIDTH 8 0
BBX 6 21 1 -4
BITMAP
04
08
10
20
60
60
c0
c0
c0
c0
c0
c0
c0
c0
40
60
60
20
10
08
04
ENDCHAR
STARTCHAR RParen
ENCODING 41
SWIDTH 321 0
DWIDTH 8 0
BBX 6 21 1 -4
BITMAP
80
40
20
10
18
18
08
0c
0c
0c
0c
0c
0c
0c
08
18
18
10
20
40
80
ENDCHAR
STARTCHAR Star
ENCODING 42
SWIDTH 471 0
DWIDTH 12 0
BBX 9 11 2 0
BITMAP
0800
0800
c980
eb80
1c00
1c00
eb00
c980
0800
0800
0800
ENDCHAR
STARTCHAR Plus
ENCODING 43
SWIDTH 644 0
DWIDTH 17 0
BBX 13 13 2 0
BITMAP
0200
0200
0200
0200
0200
0200
fff8
fff8
0200
0200
0200
0200
0200
ENDCHAR
STARTCHAR Comma
ENCODING 44
SWIDTH 250 0
DWIDTH 6 0
BBX 3 7 2 -4
BITMAP
c0
e0
e0
20
20
40
80
ENDCHAR
STARTCHAR Minus
ENCODING 45
SWIDTH 644 0
DWIDTH 17 0
BBX 13 2 2 6
BITMAP
fff8
fff8
ENDCHAR
STARTCHAR Period
ENCODING 46
SWIDTH 250 0
DWIDTH 6 0
BBX 3 3 2 0
BITMAP
e0
e0
e0
ENDCHAR
STARTCHAR Slash
ENCODING 47
SWIDTH 317 0
DWIDTH 8 0
BBX 7 22 0 -4
BITMAP
02
02
06
04
04
04
0c
08
08
18
10
10
30
20
20
60
40
40
40
c0
80
80
ENDCHAR
STARTCHAR Zero
ENCODING 48
SWIDTH 500 0
DWIDTH 13 0
BBX 12 17 0 0
BITMAP
0f00
30c0
6060
6060
4020
c030
c030
c030
c030
c030
c030
c030
4020
6060
6060
30c0
0f00
ENDCHAR
STARTCHAR One
ENCODING 49
SWIDTH 500 0
DWIDTH 13 0
BBX 8 17 3 0
BITMAP
08
78
98
18
18
18
18
18
18
18
18
18
18
18
18
38
ff
ENDCHAR
STARTCHAR Two
ENCODING 50
SWIDTH 500 0
DWIDTH 13 0
BBX 12 18 1 0
BITMAP
1f00
3f80
63c0
81c0
80c0
00c0
00c0
0080
0180
0100
0200
0600
0400
0800
1010
2020
7fe0
ffc0
ENDCHAR
STARTCHAR Three
ENCODING 51
SWIDTH 500 0
DWIDTH 13 0
BBX 10 18 1 0
BITMAP
1e00
3f00
6380
4180
8180
0100
0300
0600
1f80
0380
01c0
00c0
00c0
00c0
0080
4100
f200
7c00
ENDCHAR
STARTCHAR Four
ENCODING 52
SWIDTH 500 0
DWIDTH 13 0
BBX 12 17 1 0
BITMAP
0180
0180
0380
0580
0d80
0980
1180
2180
6180
4180
8180
fff0
fff0
0180
0180
0180
0180
ENDCHAR
STARTCHAR Five
ENCODING 53
SWIDTH 500 0
DWIDTH 13 0
BBX 11 18 1 0
BITMAP
0020
1fc0
1f80
2000
2000
7800
fe00
1f00
0380
01c0
00c0
00c0
00c0
00c0
0080
c100
e200
7c00
ENDCHAR
STARTCHAR Six
ENCODING 54
SWIDTH 500 0
DWIDTH 13 0
BBX 11 18 1 0
BITMAP
01e0
0700
0c00
1800
3800
7000
6000
ef80
f1c0
c0e0
c060
c060
c060
c060
6060
60c0
3080
0f00
ENDCHAR
STARTCHAR Seven
ENCODING 55
SWIDTH 500 0
DWIDTH 13 0
BBX 10 17 1 0
BITMAP
7fc0
ffc0
80c0
8080
0080
0180
0100
0100
0300
0300
0200
0600
0600
0400
0c00
0c00
1800
ENDCHAR
STARTCHAR Eight
ENCODING 56
SWIDTH 500 0
DWIDTH 13 0
BBX 10 17 1 0
BITMAP
0f00
3180
60c0
60c0
60c0
7180
3b00
1e00
0f00
3780
6180
c0c0
c0c0
c0c0
60c0
3180
1f00
ENDCHAR
STARTCHAR Nine
ENCODING 57
SWIDTH 500 0
DWIDTH 13 0
BBX 11 17 1 0
BITMAP
1f00
2180
60c0
c0c0
c060
c060
c060
c060
e060
70e0
3f40
00c0
01c0
0180
0700
0c00
7000
ENDCHAR
STARTCHAR Colon
ENCODING 58
SWIDTH 278 0
DWIDTH 7 0
BBX 3 12 2 0
BITMAP
e0
e0
e0
00
00
00
00
00
00
e0
e0
e0
ENDCHAR
STARTCHAR SemiColon
ENCODING 59
SWIDTH 278 0
DWIDTH 7 0
BBX 4 16 2 -4
BITMAP
e0
e0
e0
00
00
00
00
00
00
e0
f0
f0
10
10
20
40
ENDCHAR
STARTCHAR Less
ENCODING 60
SWIDTH 644 0
DWIDTH 17 0
BBX 13 13 2 0
BITMAP
0008
0038
00e0
0380
1e00
7000
c000
7000
1e00
0380
00e0
0038
0008
ENDCHAR
STARTCHAR Equal
ENCODING 61
SWIDTH 645 0
DWIDTH 17 0
BBX 13 7 2 3
BITMAP
fff8
fff8
0000
0000
0000
fff8
fff8
ENDCHAR
STARTCHAR Greater
ENCODING 62
SWIDTH 644 0
DWIDTH 17 0
BBX 14 13 2 0
BITMAP
c000
f000
3c00
0f00
03e0
0078
001c
0078
03e0
0f00
3c00
f000
c000
ENDCHAR
STARTCHAR Question
ENCODING 63
SWIDTH 444 0
DWIDTH 12 0
BBX 9 18 2 0
BITMAP
3e00
4700
8380
c180
c180
4180
0100
0300
0200
0400
0400
0400
0800
0000
0000
1c00
1c00
1c00
ENDCHAR
STARTCHAR TildeFullEqual
ENCODING 64
SWIDTH 644 0
DWIDTH 17 0
BBX 14 12 2 0
BITMAP
3804
4608
8318
80e0
0000
0000
fff8
fff8
0000
0000
fff8
fff8
ENDCHAR
STARTCHAR CapAlpha
ENCODING 65
SWIDTH 724 0
DWIDTH 19 0
BBX 17 18 1 0
BITMAP
008000
018000
018000
01c000
02c000
02e000
06e000
046000
047000
0c7000
083800
0ff800
101c00
101c00
101c00
200e00
700f00
f83f80
ENDCHAR
STARTCHAR CapBeta
ENCODING 66
SWIDTH 639 0
DWIDTH 17 0
BBX 15 17 1 0
BITMAP
ffe0
3038
301c
300c
300c
300c
3038
3fe0
3078
301c
300e
300e
300e
300e
301c
7038
ffe0
ENDCHAR
STARTCHAR CapChi
ENCODING 67
SWIDTH 725 0
DWIDTH 19 0
BBX 18 17 0 0
BITMAP
7f8fc0
3c0300
0e0600
0e0400
070800
039000
01f000
00e000
006000
00f000
013800
021800
041c00
080e00
180f00
380f80
fc1fc0
ENDCHAR
STARTCHAR CapDelta
ENCODING 68
SWIDTH 636 0
DWIDTH 17 0
BBX 15 18 1 0
BITMAP
0100
0300
0380
0380
0580
05c0
0cc0
08e0
0860
1070
1070
3038
2038
2018
401c
401c
fffe
fffe
ENDCHAR
STARTCHAR CapEpsilon
ENCODING 69
SWIDTH 628 0
DWIDTH 16 0
BBX 14 17 1 0
BITMAP
fff8
3018
3008
3000
3000
3020
3060
3fe0
3060
3020
3020
3000
3000
3004
3004
301c
fff8
ENDCHAR
STARTCHAR CapPhi
ENCODING 70
SWIDTH 637 0
DWIDTH 17 0
BBX 16 17 0 0
BITMAP
07f8
01e0
00c0
07f0
18cc
70c6
60c3
c0c3
c0c3
c0c3
60c3
70c6
1ccc
03f0
00c0
01e0
07f8
ENDCHAR
STARTCHAR CapGamma
ENCODING 71
SWIDTH 592 0
DWIDTH 15 0
BBX 15 17 0 0
BITMAP
fffc
1804
1802
1800
1800
1800
1800
1800
1800
1800
1800
1800
1800
1800
1800
3c00
ff00
ENDCHAR
STARTCHAR CapEta
ENCODING 72
SWIDTH 730 0
DWIDTH 19 0
BBX 19 17 0 0
BITMAP
ff1fe0
3c0780
180300
180300
180300
180300
180300
180300
1fff00
180300
180300
180300
180300
180300
180300
3c0780
ff1fe0
ENDCHAR
STARTCHAR CapIota
ENCODING 73
SWIDTH 351 0
DWIDTH 9 0
BBX 8 17 0 0
BITMAP
ff
3c
18
18
18
18
18
18
18
18
18
18
18
18
18
3c
ff
ENDCHAR
STARTCHAR CurlyTheta
ENCODING 74
SWIDTH 494 0
DWIDTH 13 0
BBX 12 18 1 0
BITMAP
0380
04c0
0860
0860
0860
0860
0460
12e0
61c0
60f0
c0d0
c180
c180
c180
c300
4200
6400
3800
ENDCHAR
STARTCHAR CapKappa
ENCODING 75
SWIDTH 734 0
DWIDTH 19 0
BBX 18 17 0 0
BITMAP
ff3f80
3c1e00
181800
181000
182000
18c000
198000
1b0000
1f8000
19c000
18e000
187000
183800
181c00
180e00
3c0f80
ff3fc0
ENDCHAR
STARTCHAR CapLambda
ENCODING 76
SWIDTH 716 0
DWIDTH 19 0
BBX 18 18 0 0
BITMAP
008000
008000
01c000
01c000
01e000
026000
027000
043000
043800
043800
081c00
081c00
100c00
100e00
300600
200700
700780
f81fc0
ENDCHAR
STARTCHAR CapMu
ENCODING 77
SWIDTH 883 0
DWIDTH 23 0
BBX 22 17 1 0
BITMAP
f000fc
3800f0
3801e0
3c0160
2c0360
2e0260
2e0660
270460
270c60
238860
239860
21d060
21f060
20e060
20e060
70c0f0
f843fc
ENDCHAR
STARTCHAR CapNu
ENCODING 78
SWIDTH 727 0
DWIDTH 19 0
BBX 17 17 1 0
BITMAP
f00f80
780700
3c0200
3e0200
2e0200
270200
238200
21c200
21e200
20f200
207a00
203a00
201e00
200e00
200600
700600
f80200
ENDCHAR
STARTCHAR CapOmicron
ENCODING 79
SWIDTH 687 0
DWIDTH 18 0
BBX 17 18 0 0
BITMAP
03e000
0c1800
380c00
300600
700700
600300
e00380
e00380
e00380
e00380
e00380
e00380
700700
700700
300600
180c00
0c3800
03e000
ENDCHAR
STARTCHAR CapPi
ENCODING 80
SWIDTH 727 0
DWIDTH 19 0
BBX 19 17 0 0
BITMAP
ffffe0
380380
180300
180300
180300
180300
180300
180300
180300
180300
180300
180300
180300
180300
180300
3c0780
ff1fe0
ENDCHAR
STARTCHAR CapTheta
ENCODING 81
SWIDTH 687 0
DWIDTH 18 0
BBX 17 18 0 0
BITMAP
03f000
0e1800
1c0c00
380600
700700
700700
e00380
e21380
e3f380
e3f380
e3f380
e21380
700300
700700
300600
180e00
0e1c00
03f000
ENDCHAR
STARTCHAR CapRho
ENCODING 82
SWIDTH 564 0
DWIDTH 15 0
BBX 14 17 0 0
BITMAP
ffe0
3878
1838
181c
181c
181c
1838
1870
1fe0
1800
1800
1800
1800
1800
1800
3c00
ff00
ENDCHAR
STARTCHAR CapSigma
ENCODING 83
SWIDTH 572 0
DWIDTH 15 0
BBX 14 17 1 0
BITMAP
7ff8
7018
3008
1808
0c08
0c00
0600
0300
0300
0200
0400
0c04
1804
3008
2018
7ff8
fff8
ENDCHAR
STARTCHAR CapTau
ENCODING 84
SWIDTH 604 0
DWIDTH 16 0
BBX 16 17 0 0
BITMAP
7ffe
4182
4183
8181
8181
0180
0180
0180
0180
0180
0180
0180
0180
0180
0180
03c0
0ff0
ENDCHAR
STARTCHAR CapUpsilon
ENCODING 85
SWIDTH 684 0
DWIDTH 18 0
BBX 17 17 0 0
BITMAP
700380
980c00
0c1800
0e3000
062000
036000
034000
014000
018000
018000
018000
018000
018000
018000
018000
038000
0ff000
ENDCHAR
STARTCHAR FinalSigma
ENCODING 86
SWIDTH 473 0
DWIDTH 12 0
BBX 10 17 1 -5
BITMAP
0fc0
31c0
60c0
4000
c000
c000
c000
e000
f000
7c00
1f00
0780
0380
0180
0180
0300
1e00
ENDCHAR
STARTCHAR CapOmega
ENCODING 87
SWIDTH 748 0
DWIDTH 19 0
BBX 18 18 1 0
BITMAP
03f000
0e1c00
1c0e00
380700
300300
700380
700380
700380
700380
700380
300300
380700
180600
980640
880440
c40840
fc0fc0
fe1fc0
ENDCHAR
STARTCHAR CapXi
ENCODING 88
SWIDTH 615 0
DWIDTH 16 0
BBX 15 17 1 0
BITMAP
fffc
fffc
800c
8004
8002
2010
2010
3ff0
3ff0
2010
2010
0000
8002
8004
800c
fffc
fffc
ENDCHAR
STARTCHAR CapPsi
ENCODING 89
SWIDTH 616 0
DWIDTH 16 0
BBX 16 17 0 0
BITMAP
0ff0
83c0
4183
6186
6186
6186
3186
318e
318c
199c
07e0
0180
0180
0180
0180
03c0
0ff0
ENDCHAR
STARTCHAR CapZeta
ENCODING 90
SWIDTH 635 0
DWIDTH 17 0
BBX 16 17 1 0
BITMAP
7ffe
601c
4038
8078
8070
00e0
01c0
01c0
0380
0700
0e00
0e00
1c00
3801
7802
7006
fffe
ENDCHAR
STARTCHAR LBracket
ENCODING 91
SWIDTH 333 0
DWIDTH 9 0
BBX 5 22 2 -4
BITMAP
f8
c0
c0
c0
c0
c0
c0
c0
c0
c0
c0
c0
c0
c0
c0
c0
c0
c0
c0
c0
c0
f8
ENDCHAR
STARTCHAR Therefore
ENCODING 92
SWIDTH 629 0
DWIDTH 16 0
BBX 13 13 2 0
BITMAP
0700
0700
0700
0000
0000
0000
0000
0000
0000
0000
e038
e038
e038
ENDCHAR
STARTCHAR RBracket
ENCODING 93
SWIDTH 333 0
DWIDTH 9 0
BBX 5 22 1 -4
BITMAP
f8
18
18
18
18
18
18
18
18
18
18
18
18
18
18
18
18
18
18
18
18
f8
ENDCHAR
STARTCHAR Perpendicular
ENCODING 94
SWIDTH 712 0
DWIDTH 19 0
BBX 15 14 2 0
BITMAP
0100
0100
0100
0100
0100
0100
0100
0100
0100
0100
0100
0100
0100
fffe
ENDCHAR
STARTCHAR Underbar
ENCODING 95
SWIDTH 580 0
DWIDTH 15 0
BBX 12 1 2 -3
BITMAP
fff0
ENDCHAR
STARTCHAR Hat
ENCODING 96
SWIDTH 312 0
DWIDTH 8 0
BBX 7 5 0 0
BITMAP
38
38
6c
c6
82
ENDCHAR
STARTCHAR Alpha
ENCODING 97
SWIDTH 593 0
DWIDTH 15 0
BBX 14 12 1 0
BITMAP
0700
198c
30c8
60d8
60d0
c0e0
c0c0
c0c0
c180
c188
6390
3ce0
ENDCHAR
STARTCHAR Beta
ENCODING 98
SWIDTH 508 0
DWIDTH 13 0
BBX 15 23 -2 -5
BITMAP
0078
00cc
0106
0306
0206
0606
060c
0608
0cf0
0c98
0c08
0c0c
180c
180c
180c
3818
3c30
37c0
3000
6000
6000
e000
c000
ENDCHAR
STARTCHAR Chi
ENCODING 99
SWIDTH 555 0
DWIDTH 14 0
BBX 17 18 -3 -6
BITMAP
070080
0b0180
018300
018600
018c00
019800
01b000
01e000
01c000
01c000
02c000
04c000
08c000
10c000
20c400
406800
807000
800000
ENDCHAR
STARTCHAR Delta
ENCODING 100
SWIDTH 465 0
DWIDTH 12 0
BBX 12 18 0 0
BITMAP
01e0
0230
0410
0400
0600
0300
0380
0cc0
30e0
6060
6060
c060
c060
c0c0
c0c0
c180
6300
3c00
ENDCHAR
STARTCHAR Epsilon
ENCODING 101
SWIDTH 390 0
DWIDTH 10 0
BBX 9 12 1 0
BITMAP
0f80
3800
6000
6000
c000
ff00
c000
c000
c000
6000
7000
1f80
ENDCHAR
STARTCHAR Phi
ENCODING 102
SWIDTH 550 0
DWIDTH 14 0
BBX 13 22 1 -5
BITMAP
00e0
00c0
00c0
00c0
0180
07e0
09b0
3118
6318
6318
c218
c218
c630
c430
c460
64c0
3f00
0800
0800
0800
1000
1000
ENDCHAR
STARTCHAR Gamma
ENCODING 103
SWIDTH 518 0
DWIDTH 13 0
BBX 13 17 0 -5
BITMAP
3818
7c18
8e10
8630
0620
0660
02c0
0280
0300
0300
0200
0400
0400
0c00
1c00
1800
1800
ENDCHAR
STARTCHAR Eta
ENCODING 104
SWIDTH 495 0
DWIDTH 13 0
BBX 11 18 1 -6
BITMAP
61c0
b660
3860
3060
2060
60c0
60c0
60c0
40c0
4080
c180
c180
0180
0180
0100
0300
0300
0300
ENDCHAR
STARTCHAR Iota
ENCODING 105
SWIDTH 284 0
DWIDTH 7 0
BBX 6 12 1 0
BITMAP
30
30
30
70
60
60
60
c0
c4
c4
f8
70
ENDCHAR
STARTCHAR CurlyPhi
ENCODING 106
SWIDTH 569 0
DWIDTH 15 0
BBX 13 17 1 -5
BITMAP
0870
10f0
2198
6108
4308
c208
c208
c610
c430
f4e0
7fc0
1f00
0800
0800
0800
1800
1800
ENDCHAR
STARTCHAR Kappa
ENCODING 107
SWIDTH 434 0
DWIDTH 11 0
BBX 11 12 1 0
BITMAP
1820
18e0
3880
3100
3200
3c00
7c00
6e00
6600
6700
c300
c1c0
ENDCHAR
STARTCHAR Lambda
ENCODING 108
SWIDTH 514 0
DWIDTH 13 0
BBX 14 18 0 0
BITMAP
3c00
0600
0300
0300
0180
0180
0180
0180
0380
0780
0580
0980
1180
1180
2180
40c0
40cc
c070
ENDCHAR
STARTCHAR Mu
ENCODING 109
SWIDTH 535 0
DWIDTH 14 0
BBX 14 17 -1 -5
BITMAP
0c1c
0c18
0818
1838
1838
1830
1830
3070
3060
30e0
39e4
6e78
6000
6000
6000
c000
c000
ENDCHAR
STARTCHAR Nu
ENCODING 110
SWIDTH 460 0
DWIDTH 12 0
BBX 11 12 1 0
BITMAP
2060
f060
3860
3840
1880
1880
1900
1a00
1c00
1c00
1800
1000
ENDCHAR
STARTCHAR Omicron
ENCODING 111
SWIDTH 478 0
DWIDTH 12 0
BBX 11 12 1 0
BITMAP
0780
18c0
3060
6060
6060
c060
c060
c0c0
c0c0
c180
6300
3c00
ENDCHAR
STARTCHAR Pi
ENCODING 112
SWIDTH 524 0
DWIDTH 14 0
BBX 14 12 0 0
BITMAP
1ffc
7ff8
4c60
8840
08c0
18c0
1080
1180
3180
61c0
e1e0
c0e0
ENDCHAR
STARTCHAR Theta
ENCODING 113
SWIDTH 439 0
DWIDTH 11 0
BBX 11 18 1 0
BITMAP
0380
0440
0860
1860
3060
3060
7060
60e0
60e0
ffc0
c0c0
c0c0
c180
c180
c100
c300
6600
3800
ENDCHAR
STARTCHAR Rho
ENCODING 114
SWIDTH 508 0
DWIDTH 13 0
BBX 14 17 -1 -5
BITMAP
01f0
0318
060c
0c0c
080c
180c
180c
1818
3818
3830
3c60
3780
7000
6000
6000
e000
c000
ENDCHAR
STARTCHAR Sigma
ENCODING 115
SWIDTH 679 0
DWIDTH 18 0
BBX 16 12 1 0
BITMAP
07ff
18ff
2060
6060
4060
c060
c060
c0c0
c0c0
c180
6300
3c00
ENDCHAR
STARTCHAR Tau
ENCODING 116
SWIDTH 474 0
DWIDTH 12 0
BBX 12 12 0 0
BITMAP
1ff0
3fe0
c200
8200
0600
0600
0400
0c00
0c00
0e00
0e00
0600
ENDCHAR
STARTCHAR Upsilon
ENCODING 117
SWIDTH 525 0
DWIDTH 14 0
BBX 12 12 1 0
BITMAP
7810
9830
1830
1830
3030
3020
3020
6060
6040
6080
7100
3e00
ENDCHAR
STARTCHAR CurlyPi
ENCODING 118
SWIDTH 822 0
DWIDTH 21 0
BBX 20 12 1 0
BITMAP
1ffff0
3ffff0
440100
880180
982180
106180
304180
304380
304300
30c700
394600
1e3800
ENDCHAR
STARTCHAR Omega
ENCODING 119
SWIDTH 691 0
DWIDTH 18 0
BBX 16 12 1 0
BITMAP
0804
1002
3002
2003
6083
4183
c183
c107
c106
c30c
6518
78f0
ENDCHAR
STARTCHAR Xi
ENCODING 120
SWIDTH 437 0
DWIDTH 11 0
BBX 12 23 0 -5
BITMAP
0300
0230
02f0
01e0
0600
0c00
1800
1800
1800
07c0
18c0
3000
6000
c000
c000
c000
f000
7f00
0100
0100
0100
2200
3c00
ENDCHAR
STARTCHAR Psi
ENCODING 121
SWIDTH 617 0
DWIDTH 16 0
BBX 14 22 1 -5
BITMAP
00c0
0080
0180
0180
0180
c104
6318
6318
6230
6230
e630
c660
c460
c460
ccc0
6b80
1e00
0800
0800
1000
1000
1000
ENDCHAR
STARTCHAR Zeta
ENCODING 122
SWIDTH 421 0
DWIDTH 11 0
BBX 13 22 0 -5
BITMAP
0300
0438
0470
03c0
0100
0200
0400
0800
1800
1000
2000
6000
4000
c000
e000
fe00
7f80
0080
0080
0100
6200
3c00
ENDCHAR
STARTCHAR LBrace
ENCODING 123
SWIDTH 328 0
DWIDTH 9 0
BBX 5 22 2 -4
BITMAP
18
20
60
60
60
60
60
60
60
60
c0
c0
60
60
60
60
60
60
60
60
20
18
ENDCHAR
STARTCHAR VertBar
ENCODING 124
SWIDTH 200 0
DWIDTH 5 0
BBX 2 21 2 -3
BITMAP
c0
c0
c0
c0
c0
c0
c0
c0
c0
c0
c0
c0
c0
c0
c0
c0
c0
c0
c0
c0
c0
ENDCHAR
STARTCHAR RBrace
ENCODING 125
SWIDTH 328 0
DWIDTH 9 0
BBX 6 22 1 -4
BITMAP
40
20
30
30
30
30
30
30
30
30
1c
18
30
30
30
30
30
30
30
30
20
c0
ENDCHAR
STARTCHAR Tilde
ENCODING 126
SWIDTH 644 0
DWIDTH 17 0
BBX 14 4 2 5
BITMAP
3804
c608
8318
80e0
ENDCHAR
STARTCHAR DEL
ENCODING 127
SWIDTH 189 0
DWIDTH 5 0
BBX 0 0 0 0
BITMAP
ENDCHAR
STARTCHAR FractionBarExt
ENCODING 128
SWIDTH 165 0
DWIDTH 4 0
BBX 5 2 0 6
BITMAP
f8
f8
ENDCHAR
STARTCHAR EscapeChar
ENCODING 129
SWIDTH 297 0
DWIDTH 8 0
BBX 5 14 2 -2
BITMAP
f8
f8
00
00
00
00
f8
f8
00
00
00
00
f8
f8
ENDCHAR
STARTCHAR SelectPlaceholder
ENCODING 130
SWIDTH 595 0
DWIDTH 15 0
BBX 11 12 2 0
BITMAP
ffe0
ffe0
ffe0
ffe0
ffe0
ffe0
ffe0
ffe0
ffe0
ffe0
ffe0
ffe0
ENDCHAR
STARTCHAR Placeholder
ENCODING 131
SWIDTH 589 0
DWIDTH 15 0
BBX 12 12 2 0
BITMAP
fff0
8010
8010
8010
8010
8010
8010
8010
8010
8010
8010
fff0
ENDCHAR
STARTCHAR Continuation
ENCODING 132
SWIDTH 533 0
DWIDTH 14 0
BBX 11 18 2 0
BITMAP
c000
c000
c000
0000
0000
0000
0000
0000
0c00
0c00
0c00
0000
0000
0000
0000
0060
0060
0060
ENDCHAR
STARTCHAR Skeleton
ENCODING 133
SWIDTH 333 0
DWIDTH 9 0
BBX 7 4 1 4
BITMAP
fe
fe
fe
fe
ENDCHAR
STARTCHAR LSkeleton
ENCODING 134
SWIDTH 1000 0
DWIDTH 26 0
BBX 22 13 3 0
BITMAP
000804
00381c
01e070
0783c0
1c0f00
f03800
c06000
f03800
1c0f00
0783c0
01e070
00381c
000804
ENDCHAR
STARTCHAR RSkeleton
ENCODING 135
SWIDTH 1000 0
DWIDTH 26 0
BBX 23 13 1 0
BITMAP
c06000
f07800
3c1f00
0f87c0
03e0f0
00783e
001c0e
00783e
03e0f0
0f87c0
3c1f00
f07800
c06000
ENDCHAR
STARTCHAR Spacer
ENCODING 136
SWIDTH 250 0
DWIDTH 6 0
BBX 6 3 0 -3
BITMAP
84
88
f8
ENDCHAR
STARTCHAR Cross
ENCODING 137
SWIDTH 522 0
DWIDTH 14 0
BBX 10 11 2 1
BITMAP
8040
c0c0
6180
3300
1e00
0c00
1e00
3300
6180
c0c0
8040
ENDCHAR
STARTCHAR DblEqual
ENCODING 138
SWIDTH 806 0
DWIDTH 21 0
BBX 18 7 1 3
BITMAP
ff7fc0
ff7fc0
000000
000000
000000
ff7fc0
ff7fc0
ENDCHAR
STARTCHAR Grave
ENCODING 139
SWIDTH 224 0
DWIDTH 6 0
BBX 5 5 0 0
BITMAP
80
c0
60
30
08
ENDCHAR
STARTCHAR Acute
ENCODING 140
SWIDTH 224 0
DWIDTH 6 0
BBX 5 5 0 0
BITMAP
08
18
30
60
80
ENDCHAR
STARTCHAR DoubleAcute
ENCODING 141
SWIDTH 364 0
DWIDTH 9 0
BBX 9 5 0 1
BITMAP
0c80
1980
3300
6400
8800
ENDCHAR
STARTCHAR OverTilde
ENCODING 142
SWIDTH 331 0
DWIDTH 9 0
BBX 8 3 0 1
BITMAP
71
ff
8e
ENDCHAR
STARTCHAR OverBar
ENCODING 143
SWIDTH 312 0
DWIDTH 8 0
BBX 8 1 0 2
BITMAP
ff
ENDCHAR
STARTCHAR DblUpDownArrow
ENCODING 144
SWIDTH 629 0
DWIDTH 16 0
BBX 12 25 2 -2
BITMAP
0600
0f00
1f80
30c0
70e0
d0b0
9090
1080
1080
1080
1080
1080
1080
1080
1080
1080
1080
1080
9090
d0b0
70e0
30c0
1f80
0f00
0600
ENDCHAR
STARTCHAR DblUpExtens1
ENCODING 145
SWIDTH 629 0
DWIDTH 16 0
BBX 6 8 5 0
BITMAP
84
84
84
84
84
84
84
84
ENDCHAR
STARTCHAR DblLongLArrow
ENCODING 146
SWIDTH 1377 0
DWIDTH 36 0
BBX 32 13 2 0
BITMAP
06000000
0c000000
08000000
1fffffff
20000000
60000000
c0000000
40000000
20000000
1fffffff
18000000
0c000000
06000000
ENDCHAR
STARTCHAR DblExtens
ENCODING 147
SWIDTH 448 0
DWIDTH 12 0
BBX 8 7 2 3
BITMAP
ff
00
00
00
00
00
ff
ENDCHAR
STARTCHAR DblLongRArrow
ENCODING 148
SWIDTH 1377 0
DWIDTH 36 0
BBX 32 13 2 0
BITMAP
00000060
00000030
00000018
fffffff8
00000004
00000006
00000003
00000002
00000004
fffffff8
00000018
00000030
00000060
ENDCHAR
STARTCHAR DblLRArrow2
ENCODING 149
SWIDTH 1110 0
DWIDTH 29 0
BBX 25 13 2 0
BITMAP
06003000
0c001800
18000c00
1ffffc00
20000200
60000300
c0000180
40000100
20000200
1ffffc00
18000c00
0c001800
06003000
ENDCHAR
STARTCHAR DblLongLRArrow
ENCODING 150
SWIDTH 1606 0
DWIDTH 42 0
BBX 38 13 2 0
BITMAP
0600000180
0c000000c0
0800000040
1fffffffe0
2000000010
6000000018
c00000000c
4000000008
2000000010
1fffffffe0
1800000060
0c000000c0
0600000180
ENDCHAR
STARTCHAR UpDownArrow
ENCODING 151
SWIDTH 533 0
DWIDTH 14 0
BBX 10 22 2 0
BITMAP
0800
1c00
3e00
6b00
c980
8840
0800
0800
0800
0800
0800
0800
0800
0800
0800
0800
8840
c980
6b00
3e00
1c00
0800
ENDCHAR
STARTCHAR LongLArrow
ENCODING 152
SWIDTH 1374 0
DWIDTH 36 0
BBX 32 11 2 1
BITMAP
08000000
18000000
30000000
70000000
60000000
ffffffff
60000000
70000000
30000000
18000000
08000000
ENDCHAR
STARTCHAR LongRArrow
ENCODING 153
SWIDTH 1382 0
DWIDTH 36 0
BBX 32 11 2 1
BITMAP
00000010
00000018
0000000c
0000000e
00000006
ffffffff
00000006
0000000e
0000000c
00000018
00000010
ENDCHAR
STARTCHAR LongLRArrow
ENCODING 154
SWIDTH 1605 0
DWIDTH 42 0
BBX 38 11 2 1
BITMAP
0800000040
1800000060
3000000030
7000000038
6000000018
fffffffffc
6000000018
7000000038
3000000030
1800000060
0800000040
ENDCHAR
STARTCHAR ColonEqual
ENCODING 155
SWIDTH 837 0
DWIDTH 22 0
BBX 18 11 2 1
BITMAP
e00000
e00000
e7ffc0
07ffc0
000000
000000
000000
07ffc0
e7ffc0
e00000
e00000
ENDCHAR
STARTCHAR Diamond2
ENCODING 156
SWIDTH 512 0
DWIDTH 13 0
BBX 10 11 1 2
BITMAP
0400
0c00
1200
2100
4080
8040
4080
2100
1200
0c00
0400
ENDCHAR
STARTCHAR NotSquareSprsetEqual
ENCODING 157
SWIDTH 657 0
DWIDTH 17 0
BBX 13 17 2 -3
BITMAP
ff80
0060
0030
0010
0008
0008
0008
0008
0008
0010
0030
0060
ff80
0000
0000
0000
fff8
ENDCHAR
STARTCHAR AtSign
ENCODING 158
SWIDTH 685 0
DWIDTH 18 0
BBX 14 15 2 -1
BITMAP
07e0
1c10
3008
61a4
6264
c664
cc64
cc44
ccc8
ccc8
6770
6000
3000
1830
07c0
ENDCHAR
STARTCHAR Solidmedsqr
ENCODING 159
SWIDTH 519 0
DWIDTH 13 0
BBX 9 11 2 2
BITMAP
ff80
ff80
ff80
ff80
ff80
ff80
ff80
ff80
ff80
ff80
ff80
ENDCHAR
STARTCHAR OverDot
ENCODING 160
SWIDTH 100 0
DWIDTH 3 0
BBX 2 3 0 1
BITMAP
c0
c0
c0
ENDCHAR
STARTCHAR CurlyCapUpsilon
ENCODING 161
SWIDTH 648 0
DWIDTH 17 0
BBX 16 18 0 0
BITMAP
f00e
1c13
0623
0247
0346
0140
0140
0180
0180
0180
0180
0180
0180
0180
0180
0180
0380
0ff0
ENDCHAR
STARTCHAR Prime
ENCODING 162
SWIDTH 347 0
DWIDTH 9 0
BBX 6 11 2 1
BITMAP
0c
1c
3c
3c
38
70
70
60
c0
c0
80
ENDCHAR
STARTCHAR LessEqual
ENCODING 163
SWIDTH 644 0
DWIDTH 17 0
BBX 14 13 2 0
BITMAP
0008
0078
03c0
0e00
7800
e000
3c00
0780
00f0
0018
0004
0000
fff8
ENDCHAR
STARTCHAR Fraction
ENCODING 164
SWIDTH 520 0
DWIDTH 14 0
BBX 13 18 0 0
BITMAP
0008
0010
0030
0020
0040
00c0
0180
0100
0300
0600
0400
0c00
1800
1000
2000
6000
4000
8000
ENDCHAR
STARTCHAR Infinity
ENCODING 165
SWIDTH 853 0
DWIDTH 22 0
BBX 20 10 1 1
BITMAP
1e03c0
238460
41d830
c0d010
c0e010
c07010
c0b010
e19810
730e20
3c07c0
ENDCHAR
STARTCHAR RuleDelayed
ENCODING 166
SWIDTH 802 0
DWIDTH 21 0
BBX 17 11 2 1
BITMAP
400800
e00c00
e00600
000300
000180
0fff80
000180
000300
e00600
e00c00
400800
ENDCHAR
STARTCHAR ClubSuit
ENCODING 167
SWIDTH 578 0
DWIDTH 15 0
BBX 13 14 1 0
BITMAP
0700
0f80
0fc0
0fc0
0fc0
0f80
7ff0
fff8
fff8
fff8
fff8
3a70
0200
0700
ENDCHAR
STARTCHAR DiamondSuit
ENCODING 168
SWIDTH 531 0
DWIDTH 14 0
BBX 12 15 1 0
BITMAP
0200
0600
0f00
1980
1080
2040
4020
8010
4020
2040
1080
1980
0f00
0600
0200
ENDCHAR
STARTCHAR HeartSuit
ENCODING 169
SWIDTH 605 0
DWIDTH 16 0
BBX 14 15 1 0
BITMAP
3870
4488
8684
8304
8004
8004
8004
4008
2018
3030
1860
0cc0
0780
0300
0100
ENDCHAR
STARTCHAR SpadeSuit
ENCODING 170
SWIDTH 542 0
DWIDTH 14 0
BBX 11 15 1 0
BITMAP
0400
0400
0e00
1f00
3f80
3f80
7fc0
ffe0
ffe0
ffe0
ffe0
ffe0
75c0
0400
0400
ENDCHAR
STARTCHAR LRArrow
ENCODING 171
SWIDTH 973 0
DWIDTH 25 0
BBX 21 11 2 1
BITMAP
080080
1800c0
300060
600030
e00038
fffff8
e00038
600030
300060
1800c0
080080
ENDCHAR
STARTCHAR LArrow
ENCODING 172
SWIDTH 822 0
DWIDTH 21 0
BBX 17 11 2 1
BITMAP
080000
180000
300000
600000
e00000
ffff80
e00000
600000
300000
180000
080000
ENDCHAR
STARTCHAR UpArrow
ENCODING 173
SWIDTH 533 0
DWIDTH 14 0
BBX 10 18 2 0
BITMAP
0400
0e00
1f00
3580
e4c0
8440
0400
0400
0400
0400
0400
0400
0400
0400
0400
0400
0400
0400
ENDCHAR
STARTCHAR RArrow
ENCODING 174
SWIDTH 822 0
DWIDTH 21 0
BBX 18 11 2 1
BITMAP
000c00
000e00
000700
000380
0003c0
ffffc0
0003c0
000380
000700
000e00
000c00
ENDCHAR
STARTCHAR DownArrow
ENCODING 175
SWIDTH 533 0
DWIDTH 14 0
BBX 11 18 2 0
BITMAP
0600
0600
0600
0600
0600
0600
0600
0600
0600
0600
0600
0600
c660
f6e0
3fc0
1f80
0f00
0600
ENDCHAR
STARTCHAR Degree
ENCODING 176
SWIDTH 364 0
DWIDTH 9 0
BBX 8 8 1 10
BITMAP
3c
42
81
81
81
81
42
3c
ENDCHAR
STARTCHAR PlusMinus
ENCODING 177
SWIDTH 644 0
DWIDTH 17 0
BBX 13 14 2 0
BITMAP
0200
0200
0200
0200
0200
fff8
fff8
0200
0200
0200
0200
0200
0000
fff8
ENDCHAR
STARTCHAR DoublePrime
ENCODING 178
SWIDTH 589 0
DWIDTH 15 0
BBX 12 11 2 1
BITMAP
1c30
1c70
3c70
38f0
38e0
71c0
6180
6380
c300
8200
8400
ENDCHAR
STARTCHAR GreaterEqual
ENCODING 179
SWIDTH 644 0
DWIDTH 17 0
BBX 14 13 2 0
BITMAP
c000
f800
1f00
03c0
00f8
003c
01f0
0f80
7c00
e000
8000
0000
fffc
ENDCHAR
STARTCHAR Multiply
ENCODING 180
SWIDTH 642 0
DWIDTH 17 0
BBX 13 13 2 0
BITMAP
8008
c018
6030
3060
18c0
0d80
0700
0d80
18c0
3060
6030
c018
8008
ENDCHAR
STARTCHAR Proportional
ENCODING 181
SWIDTH 670 0
DWIDTH 17 0
BBX 15 10 1 1
BITMAP
3c0e
4732
4340
81c0
8080
8080
81c0
c160
6670
381e
ENDCHAR
STARTCHAR PartialDiff
ENCODING 182
SWIDTH 512 0
DWIDTH 13 0
BBX 13 18 0 0
BITMAP
01e0
0630
0c10
0c18
0418
0018
0018
0798
1c78
3038
7038
6030
c030
c060
c060
c0c0
6180
3e00
ENDCHAR
STARTCHAR Bullet
ENCODING 183
SWIDTH 314 0
DWIDTH 8 0
BBX 7 6 1 5
BITMAP
38
7c
fe
fe
7c
38
ENDCHAR
STARTCHAR Divide
ENCODING 184
SWIDTH 644 0
DWIDTH 17 0
BBX 13 13 2 0
BITMAP
0700
0700
0700
0000
0000
0000
fff8
fff8
0000
0000
0700
0700
0700
ENDCHAR
STARTCHAR NotEqual
ENCODING 185
SWIDTH 644 0
DWIDTH 17 0
BBX 13 17 2 -2
BITMAP
0080
0080
0180
0100
0100
fff8
fff8
0200
0200
0600
fff8
fff8
0400
0c00
0c00
0800
0800
ENDCHAR
STARTCHAR Equivalence
ENCODING 186
SWIDTH 644 0
DWIDTH 17 0
BBX 13 9 2 2
BITMAP
fff8
fff8
0000
fff8
fff8
0000
0000
fff8
fff8
ENDCHAR
STARTCHAR Approxequal
ENCODING 187
SWIDTH 644 0
DWIDTH 17 0
BBX 14 9 2 1
BITMAP
7c04
8708
81f0
0000
0000
3804
4608
8318
80e0
ENDCHAR
STARTCHAR Ellipsis
ENCODING 188
SWIDTH 1000 0
DWIDTH 26 0
BBX 20 3 3 0
BITMAP
e0e070
e0e070
e0e070
ENDCHAR
STARTCHAR ArrowVertEx
ENCODING 189
SWIDTH 533 0
DWIDTH 14 0
BBX 1 8 6 0
BITMAP
80
80
80
80
80
80
80
80
ENDCHAR
STARTCHAR ArrowHorizEx
ENCODING 190
SWIDTH 324 0
DWIDTH 8 0
BBX 8 1 0 6
BITMAP
ff
ENDCHAR
STARTCHAR CarriageReturn
ENCODING 191
SWIDTH 628 0
DWIDTH 16 0
BBX 14 17 1 0
BITMAP
0004
0004
0004
0004
0004
0004
0204
0404
1804
3004
4004
fffc
4000
3000
1800
0c00
0200
ENDCHAR
STARTCHAR Aleph
ENCODING 192
SWIDTH 639 0
DWIDTH 17 0
BBX 15 18 1 0
BITMAP
2008
4010
e01c
f01e
f80e
7c14
3e10
1fe0
2fe0
47e0
41f0
c0f8
e07c
e03c
f01c
700c
7008
e008
ENDCHAR
STARTCHAR IFraktur
ENCODING 193
SWIDTH 318 0
DWIDTH 8 0
BBX 7 19 0 -1
BITMAP
30
fe
1c
18
38
38
38
38
38
38
38
38
38
38
38
38
30
7e
1c
ENDCHAR
STARTCHAR RFraktur
ENCODING 194
SWIDTH 690 0
DWIDTH 18 0
BBX 16 19 1 -1
BITMAP
0fc0
3ff0
c678
8c18
1c18
1c18
1c30
1c60
1cc0
1ff0
1c30
1c38
1c38
1c18
1c1c
181e
780f
7f0e
0c04
ENDCHAR
STARTCHAR Weierstrass
ENCODING 195
SWIDTH 624 0
DWIDTH 16 0
BBX 14 17 1 -5
BITMAP
0070
0998
320c
460c
c40c
c80c
d008
6618
6610
3430
5460
5b80
8800
8800
8800
4800
7000
ENDCHAR
STARTCHAR CircleMultiply
ENCODING 196
SWIDTH 797 0
DWIDTH 21 0
BBX 17 17 2 -2
BITMAP
07f000
0c1800
300600
300600
580d00
cc1980
863080
836080
81c080
81c080
836080
c63180
4c1900
380e00
300600
0c1800
07f000
ENDCHAR
STARTCHAR CirclePlus
ENCODING 197
SWIDTH 797 0
DWIDTH 21 0
BBX 17 17 2 -2
BITMAP
03e000
0c9800
308600
208200
408100
408100
808080
808080
ffff80
ffff80
808080
808080
408100
608300
308600
1c9c00
07f000
ENDCHAR
STARTCHAR EmptySet
ENCODING 198
SWIDTH 722 0
DWIDTH 19 0
BBX 17 24 1 -3
BITMAP
001000
001000
003000
03e000
0c3800
182c00
306600
704700
604300
e04380
e0c380
e08380
e08380
e08380
e18380
610700
710700
330600
1a0c00
0e3800
03e000
060000
040000
040000
ENDCHAR
STARTCHAR Union
ENCODING 199
SWIDTH 715 0
DWIDTH 19 0
BBX 14 18 2 0
BITMAP
8004
8004
8004
8004
8004
8004
8004
8004
8004
8004
8004
8004
8004
8004
4008
6018
1020
0fc0
ENDCHAR
STARTCHAR Intersection
ENCODING 200
SWIDTH 715 0
DWIDTH 19 0
BBX 14 18 2 0
BITMAP
0fc0
1030
6018
4008
8004
8004
8004
8004
8004
8004
8004
8004
8004
8004
8004
8004
8004
8004
ENDCHAR
STARTCHAR ProperSuperset
ENCODING 201
SWIDTH 657 0
DWIDTH 17 0
BBX 13 13 2 -1
BITMAP
ff80
0060
0030
0010
0008
0008
0008
0008
0008
0010
0030
0060
ff80
ENDCHAR
STARTCHAR NbSpace
ENCODING 202
SWIDTH 189 0
DWIDTH 5 0
BBX 0 0 0 0
BITMAP
ENDCHAR
STARTCHAR NotSubset
ENCODING 203
SWIDTH 657 0
DWIDTH 17 0
BBX 13 19 2 -4
BITMAP
0040
00c0
0080
0ff8
3180
6100
4100
8100
8300
8200
8200
8200
4600
6400
3400
1ff8
0c00
0800
0800
ENDCHAR
STARTCHAR ProperSubset
ENCODING 204
SWIDTH 657 0
DWIDTH 17 0
BBX 14 13 2 -1
BITMAP
0ffc
3800
7000
6000
c000
c000
c000
c000
c000
6000
7000
3800
0ffc
ENDCHAR
STARTCHAR ReflexSubset
ENCODING 205
SWIDTH 657 0
DWIDTH 17 0
BBX 13 17 2 -3
BITMAP
0ff8
3000
6000
4000
8000
8000
8000
8000
8000
4000
6000
3000
0ff8
0000
0000
0000
7ff8
ENDCHAR
STARTCHAR Element
ENCODING 206
SWIDTH 657 0
DWIDTH 17 0
BBX 13 13 2 -1
BITMAP
1ff8
3000
4000
c000
8000
fff8
8000
8000
c000
4000
6000
3000
0ff8
ENDCHAR
STARTCHAR NotElement
ENCODING 207
SWIDTH 657 0
DWIDTH 17 0
BBX 13 19 2 -4
BITMAP
0040
00c0
0080
1ff8
3180
4100
8100
8300
fff8
8200
8200
c600
c600
6400
3400
1ff8
0c00
0800
0800
ENDCHAR
STARTCHAR Angle
ENCODING 208
SWIDTH 486 0
DWIDTH 13 0
BBX 9 14 2 0
BITMAP
1800
1000
1000
1000
3000
2000
2000
6000
4000
4000
4000
c000
8000
ff80
ENDCHAR
STARTCHAR Gradient
ENCODING 209
SWIDTH 664 0
DWIDTH 17 0
BBX 15 18 1 0
BITMAP
fffe
fffe
7004
7004
300c
3808
3818
1c10
1c10
0e20
0e20
0660
0740
0740
0380
0380
0180
0100
ENDCHAR
STARTCHAR RegTM
ENCODING 210
SWIDTH 757 0
DWIDTH 20 0
BBX 18 18 1 0
BITMAP
03f000
0e1c00
180600
300300
67e180
433080
433080
833040
832040
83c040
836040
833040
433080
679980
200100
180600
0e1c00
03f000
ENDCHAR
STARTCHAR Copyright
ENCODING 211
SWIDTH 757 0
DWIDTH 20 0
BBX 18 18 1 0
BITMAP
03f000
0c1c00
100600
200300
41e180
463080
8410c0
8c0040
8c0040
8c0040
8c0040
c608c0
471080
63e180
200300
100600
0c1c00
03f000
ENDCHAR
STARTCHAR TM
ENCODING 212
SWIDTH 980 0
DWIDTH 25 0
BBX 24 10 1 7
BITMAP
ffdc0f
ccce1c
8c4e1c
0c0b1c
0c0b2c
0c09ac
0c09ac
0c08cc
0c08cc
1e1c4f
ENDCHAR
STARTCHAR Product
ENCODING 213
SWIDTH 797 0
DWIDTH 21 0
BBX 17 19 2 0
BITMAP
ffff80
300600
300600
300600
300600
300600
300600
300600
300600
300600
300600
300600
300600
300600
300600
300600
300600
300600
fc1f80
ENDCHAR
STARTCHAR Radical
ENCODING 214
SWIDTH 781 0
DWIDTH 20 0
BBX 17 26 2 -5
BITMAP
000080
000180
000180
000100
000100
000300
000200
000200
000600
000600
180400
7c0c00
9c0c00
0e0800
0e0800
071800
071800
031000
03b000
01b000
01e000
00e000
00e000
00c000
004000
004000
ENDCHAR
STARTCHAR DotMath
ENCODING 215
SWIDTH 239 0
DWIDTH 6 0
BBX 3 3 2 5
BITMAP
e0
e0
e0
ENDCHAR
STARTCHAR LogicalNot
ENCODING 216
SWIDTH 640 0
DWIDTH 17 0
BBX 13 7 2 2
BITMAP
fff8
fff8
0008
0008
0008
0008
0008
ENDCHAR
STARTCHAR Wedge
ENCODING 217
SWIDTH 611 0
DWIDTH 16 0
BBX 13 17 1 0
BITMAP
0200
0200
0700
0500
0d80
0880
0880
18c0
1040
1040
3060
2020
6030
4010
4010
c018
8008
ENDCHAR
STARTCHAR Vee
ENCODING 218
SWIDTH 611 0
DWIDTH 16 0
BBX 14 18 1 -1
BITMAP
c00c
e01c
6018
6018
7038
3030
3030
3870
1860
1860
1ce0
0cc0
0ec0
0780
0780
0780
0300
0300
ENDCHAR
STARTCHAR DblLRArrow
ENCODING 219
SWIDTH 1110 0
DWIDTH 29 0
BBX 25 13 2 0
BITMAP
06003000
0c001800
18000c00
1ffffc00
20000200
60000300
c0000180
40000100
20000200
1ffffc00
18000c00
0c001800
06003000
ENDCHAR
STARTCHAR DblLArrow
ENCODING 220
SWIDTH 822 0
DWIDTH 21 0
BBX 17 13 2 0
BITMAP
040000
0c0000
180000
3fff80
600000
400000
c00000
c00000
600000
3fff80
180000
0c0000
040000
ENDCHAR
STARTCHAR DblUpArrow
ENCODING 221
SWIDTH 629 0
DWIDTH 16 0
BBX 12 18 2 0
BITMAP
0400
0f00
1f80
30c0
70e0
d0b0
9090
1080
1080
1080
1080
1080
1080
1080
1080
1080
1080
1080
ENDCHAR
STARTCHAR DblRArrow
ENCODING 222
SWIDTH 822 0
DWIDTH 21 0
BBX 17 13 2 0
BITMAP
001000
001800
000c00
fffe00
000300
000100
000180
000180
000300
fffe00
000c00
001800
001000
ENDCHAR
STARTCHAR DblDownArrow
ENCODING 223
SWIDTH 629 0
DWIDTH 16 0
BBX 12 18 2 0
BITMAP
1080
1080
1080
1080
1080
1080
1080
1080
1080
1080
1080
9090
d0b0
70e0
30c0
1f80
0f00
0400
ENDCHAR
STARTCHAR Lozenge
ENCODING 224
SWIDTH 453 0
DWIDTH 12 0
BBX 9 15 1 0
BITMAP
0800
0c00
1400
2200
2200
4100
c080
8080
c080
4100
2200
2200
1400
0c00
0800
ENDCHAR
STARTCHAR LAngle
ENCODING 225
SWIDTH 363 0
DWIDTH 9 0
BBX 6 22 2 -4
BITMAP
04
0c
08
18
10
30
20
60
60
c0
c0
c0
c0
60
60
20
30
10
18
08
0c
04
ENDCHAR
STARTCHAR Diffd
ENCODING 226
SWIDTH 570 0
DWIDTH 15 0
BBX 16 18 0 0
BITMAP
0007
003d
000d
001a
001a
001a
03d4
0634
1834
3034
3028
6068
6068
c0e8
c0d0
c1d4
c6d8
78f0
ENDCHAR
STARTCHAR Expe
ENCODING 227
SWIDTH 520 0
DWIDTH 14 0
BBX 12 12 1 0
BITMAP
03e0
0f30
1630
2c30
5860
5980
be00
b000
b000
b020
78c0
3f00
ENDCHAR
STARTCHAR Imagi
ENCODING 228
SWIDTH 328 0
DWIDTH 9 0
BBX 7 17 1 0
BITMAP
0c
0c
0c
00
00
1c
f4
34
34
34
68
68
68
ca
d4
d8
f0
ENDCHAR
STARTCHAR Sum
ENCODING 229
SWIDTH 684 0
DWIDTH 18 0
BBX 15 19 2 0
BITMAP
7ffc
301c
380c
1804
0c04
0c00
0600
0300
0300
0180
0300
0200
0400
0c02
1804
3004
200c
7ffc
fffc
ENDCHAR
STARTCHAR LParenTop
ENCODING 230
SWIDTH 400 0
DWIDTH 10 0
BBX 8 22 2 -1
BITMAP
01
02
04
0c
18
18
30
30
60
60
60
60
e0
e0
c0
c0
c0
c0
c0
c0
c0
c0
ENDCHAR
STARTCHAR LParenEx
ENCODING 231
SWIDTH 400 0
DWIDTH 10 0
BBX 2 8 1 0
BITMAP
c0
c0
c0
c0
c0
c0
c0
c0
ENDCHAR
STARTCHAR LParenBot
ENCODING 232
SWIDTH 400 0
DWIDTH 10 0
BBX 9 22 1 0
BITMAP
c000
c000
c000
c000
c000
c000
c000
c000
c000
4000
6000
6000
6000
2000
3000
1000
1800
0800
0c00
0600
0300
0080
ENDCHAR
STARTCHAR LBracketTop
ENCODING 233
SWIDTH 363 0
DWIDTH 9 0
BBX 6 4 2 0
BITMAP
fc
c0
c0
c0
ENDCHAR
STARTCHAR LBracketEx
ENCODING 234
SWIDTH 363 0
DWIDTH 9 0
BBX 2 8 2 0
BITMAP
c0
c0
c0
c0
c0
c0
c0
c0
ENDCHAR
STARTCHAR LBracketBot
ENCODING 235
SWIDTH 363 0
DWIDTH 9 0
BBX 6 4 2 0
BITMAP
c0
c0
c0
fc
ENDCHAR
STARTCHAR LBraceTop
ENCODING 236
SWIDTH 552 0
DWIDTH 14 0
BBX 6 17 6 -1
BITMAP
04
08
10
30
60
60
40
c0
c0
c0
c0
c0
c0
c0
c0
c0
c0
ENDCHAR
STARTCHAR LBraceMid
ENCODING 237
SWIDTH 552 0
DWIDTH 14 0
BBX 6 19 2 -3
BITMAP
0c
0c
0c
0c
0c
18
18
30
60
80
60
30
18
18
0c
0c
0c
0c
0c
ENDCHAR
STARTCHAR LBraceBot
ENCODING 238
SWIDTH 552 0
DWIDTH 14 0
BBX 6 18 6 0
BITMAP
c0
c0
c0
c0
c0
c0
c0
c0
c0
40
60
60
20
20
30
10
08
04
ENDCHAR
STARTCHAR BraceEx
ENCODING 239
SWIDTH 552 0
DWIDTH 14 0
BBX 2 8 6 0
BITMAP
c0
c0
c0
c0
c0
c0
c0
c0
ENDCHAR
STARTCHAR Slot
ENCODING 240
SWIDTH 710 0
DWIDTH 18 0
BBX 17 17 1 0
BITMAP
100400
100400
100400
ffff80
ffff80
100400
100400
100400
100400
100400
100400
100400
ffff80
ffff80
100400
100400
100400
ENDCHAR
STARTCHAR RAngle
ENCODING 241
SWIDTH 363 0
DWIDTH 9 0
BBX 6 22 2 -4
BITMAP
80
c0
40
60
20
30
10
18
18
0c
0c
0c
0c
18
18
10
30
20
60
40
c0
80
ENDCHAR
STARTCHAR Intergral
ENCODING 242
SWIDTH 668 0
DWIDTH 17 0
BBX 13 27 2 -3
BITMAP
0070
0098
0188
0100
0100
0300
0300
0300
0300
0300
0300
0300
0300
0300
0600
0600
0600
0600
0600
0600
0600
0600
0600
0400
8c00
c800
7000
ENDCHAR
STARTCHAR IntegralTop
ENCODING 243
SWIDTH 976 0
DWIDTH 25 0
BBX 19 24 4 -3
BITMAP
0000e0
0000e0
0000e0
0000e0
0000e0
0000e0
0000e0
0001e0
0001e0
0001e0
0001e0
0001e0
0001c0
0001c0
0001c0
000380
000380
000380
e00700
f00600
f80c00
781800
3c3000
0fc000
ENDCHAR
STARTCHAR IntegralEx
ENCODING 244
SWIDTH 976 0
DWIDTH 25 0
BBX 4 19 19 0
BITMAP
f0
f0
f0
f0
f0
f0
f0
f0
f0
f0
f0
f0
f0
f0
f0
f0
f0
f0
f0
ENDCHAR
STARTCHAR IntegralBot
ENCODING 245
SWIDTH 976 0
DWIDTH 25 0
BBX 19 24 20 0
BITMAP
007e00
018780
0303c0
0603e0
0c01e0
1c00e0
380000
380000
380000
780000
700000
700000
f00000
f00000
f00000
f00000
f00000
e00000
e00000
e00000
e00000
e00000
e00000
e00000
ENDCHAR
STARTCHAR RParenTop
ENCODING 246
SWIDTH 400 0
DWIDTH 10 0
BBX 8 22 1 -1
BITMAP
80
40
20
30
18
08
0c
0c
04
06
06
06
02
03
03
03
03
03
03
03
03
03
ENDCHAR
STARTCHAR RParenEx
ENCODING 247
SWIDTH 400 0
DWIDTH 10 0
BBX 2 8 7 0
BITMAP
c0
c0
c0
c0
c0
c0
c0
c0
ENDCHAR
STARTCHAR RParenBot
ENCODING 248
SWIDTH 400 0
DWIDTH 10 0
BBX 8 22 1 0
BITMAP
03
03
03
03
03
03
03
03
07
07
06
06
06
06
0c
0c
18
18
30
20
40
80
ENDCHAR
STARTCHAR RBracketTop
ENCODING 249
SWIDTH 363 0
DWIDTH 9 0
BBX 6 4 1 0
BITMAP
fc
0c
0c
0c
ENDCHAR
STARTCHAR RBracketEx
ENCODING 250
SWIDTH 363 0
DWIDTH 9 0
BBX 2 8 5 0
BITMAP
c0
c0
c0
c0
c0
c0
c0
c0
ENDCHAR
STARTCHAR RBracketBot
ENCODING 251
SWIDTH 363 0
DWIDTH 9 0
BBX 6 4 1 0
BITMAP
0c
0c
0c
fc
ENDCHAR
STARTCHAR RBraceTop
ENCODING 252
SWIDTH 552 0
DWIDTH 14 0
BBX 6 17 2 -1
BITMAP
80
40
20
30
18
18
08
0c
0c
0c
0c
0c
0c
0c
0c
0c
0c
ENDCHAR
STARTCHAR RBraceMid
ENCODING 253
SWIDTH 552 0
DWIDTH 14 0
BBX 7 19 6 -3
BITMAP
c0
c0
c0
c0
c0
60
60
30
18
06
18
30
60
60
c0
c0
c0
c0
c0
ENDCHAR
STARTCHAR RBraceBot
ENCODING 254
SWIDTH 552 0
DWIDTH 14 0
BBX 6 18 2 0
BITMAP
0c
0c
0c
0c
0c
0c
0c
0c
0c
0c
0c
18
18
10
30
20
40
80
ENDCHAR
STARTCHAR Wolf
ENCODING 255
SWIDTH 924 0
DWIDTH 24 0
BBX 22 23 1 -5
BITMAP
002000
002100
002600
004c00
007400
007400
006800
009800
009800
008800
018400
010200
033100
021c80
060040
040020
0c8018
09fffc
182000
304000
304000
604000
e06000
ENDCHAR
ENDFONT
